<svg xmlns="http://www.w3.org/2000/svg" width="400" height="400" enable-background="new 0 0 400 400" viewBox="0 0 400 400"><path fill="#CCE9FF" d="M315.47,359.727H84.53c-6.713,0-12.155-5.441-12.155-12.154V31.547c0-6.713,5.442-12.154,12.155-12.154
					h230.94c6.712,0,12.155,5.441,12.155,12.154v316.025C327.625,354.283,322.183,359.727,315.47,359.727z"/><path fill="#F7F7F7" d="M254.696,116.631H145.304c-3.356,0-6.078-2.721-6.078-6.078l0,0c0-3.355,2.722-6.076,6.078-6.076
					h109.393c3.356,0,6.078,2.721,6.078,6.076l0,0C260.773,113.91,258.052,116.631,254.696,116.631z"/><path fill="#D3D3D3" d="M130.109,165.248h-12.155c-3.356,0-6.077-2.721-6.077-6.076l0,0c0-3.355,2.721-6.078,6.077-6.078
							h12.155c3.356,0,6.077,2.723,6.077,6.078l0,0C136.186,162.529,133.465,165.248,130.109,165.248z" opacity=".97"/><path fill="#F7F7F7" d="M288.124,159.176c0,1.682-0.678,3.197-1.78,4.291c-1.101,1.102-2.618,1.779-4.301,1.779H154.416
							c-3.357,0-6.071-2.723-6.071-6.07c0-1.684,0.679-3.199,1.78-4.301c1.092-1.102,2.617-1.781,4.291-1.781h127.627
							C285.401,153.094,288.124,155.818,288.124,159.176z" opacity=".97"/><path fill="#D3D3D3" d="M130.109,189.559h-12.155c-3.356,0-6.077-2.721-6.077-6.076l0,0c0-3.357,2.721-6.078,6.077-6.078
							h12.155c3.356,0,6.077,2.721,6.077,6.078l0,0C136.186,186.84,133.465,189.559,130.109,189.559z" opacity=".97"/><path fill="#F7F7F7" d="M288.124,183.479c0,1.684-0.678,3.199-1.78,4.301c-1.101,1.102-2.618,1.781-4.301,1.781H154.416
							c-3.357,0-6.071-2.725-6.071-6.082c0-1.682,0.679-3.197,1.78-4.291c1.092-1.102,2.617-1.779,4.291-1.779h127.627
							C285.401,177.408,288.124,180.123,288.124,183.479z" opacity=".97"/><path fill="#D3D3D3" d="M130.109,213.869h-12.155c-3.356,0-6.077-2.721-6.077-6.076l0,0c0-3.357,2.721-6.08,6.077-6.08h12.155
							c3.356,0,6.077,2.723,6.077,6.08l0,0C136.186,211.148,133.465,213.869,130.109,213.869z" opacity=".97"/><path fill="#F7F7F7" d="M288.124,207.793c0,1.674-0.678,3.197-1.78,4.299c-1.101,1.102-2.618,1.781-4.301,1.781H154.416
							c-3.357,0-6.071-2.723-6.071-6.08c0-1.674,0.679-3.199,1.78-4.301c1.092-1.102,2.617-1.779,4.291-1.779h127.627
							C285.401,201.713,288.124,204.436,288.124,207.793z" opacity=".97"/><g><path fill="#0B4870" d="M160.497 268.564h-42.541c-3.356 0-6.078-2.721-6.078-6.076l0 0c0-3.357 2.722-6.078 6.078-6.078h42.541c3.356 0 6.078 2.721 6.078 6.078l0 0C166.574 265.844 163.853 268.564 160.497 268.564zM142.264 292.875h-24.309c-3.356 0-6.078-2.721-6.078-6.078l0 0c0-3.355 2.722-6.076 6.078-6.076h24.309c3.356 0 6.078 2.721 6.078 6.076l0 0C148.342 290.154 145.621 292.875 142.264 292.875z"/></g><g><path fill="#F7F7F7" d="M236.464,92.32h-72.929c-3.356,0-6.077-2.721-6.077-6.076l0,0c0-3.357,2.721-6.078,6.077-6.078h72.929
					c3.356,0,6.077,2.721,6.077,6.078l0,0C242.542,89.6,239.82,92.32,236.464,92.32z"/></g><g><path fill="#F7F7F7" d="M236.464,65.406h-72.929c-3.356,0-6.077-2.721-6.077-6.076l0,0c0-3.357,2.721-6.078,6.077-6.078h72.929
					c3.356,0,6.077,2.721,6.077,6.078l0,0C242.542,62.686,239.82,65.406,236.464,65.406z"/></g><g><g opacity=".9"><path fill="#FFBE55" d="M303.342,358.004l-16.158,3.02l-3.428,16.078c-0.737,3.457-5.029,4.695-7.496,2.166l-46.847-48.051
							l29.438-28.701l46.848,48.051C308.165,353.096,306.815,357.354,303.342,358.004z"/><path fill="#FFBE55" d="M179.384,350.566l46.848-48.051l29.439,28.701l-46.848,48.051c-2.467,2.529-6.759,1.291-7.496-2.166
							l-3.428-16.078l-16.158-3.02C178.268,357.354,176.918,353.096,179.384,350.566z"/></g><path fill="#2A94F4" d="M301.228,296.582c0,1.006-0.433,1.963-1.188,2.629l-11.134,9.793l4.747,14.051
									c0.322,0.951,0.216,1.998-0.286,2.869c-0.504,0.871-1.358,1.486-2.345,1.684l-14.537,2.918l-2.915,14.537
									c-0.197,0.984-0.812,1.842-1.684,2.344c-0.54,0.311-1.144,0.471-1.752,0.471c-0.376,0-0.755-0.062-1.121-0.188
									l-14.047-4.744l-9.793,11.133c-0.665,0.756-1.624,1.189-2.63,1.189s-1.966-0.434-2.629-1.189l-9.794-11.133l-14.046,4.744
									c-0.366,0.125-0.745,0.188-1.121,0.188c-0.609,0-1.214-0.16-1.752-0.471c-0.872-0.502-1.485-1.359-1.684-2.344
									l-2.916-14.537l-14.537-2.918c-0.987-0.197-1.841-0.812-2.343-1.684c-0.505-0.871-0.609-1.918-0.286-2.869l4.743-14.051
									l-11.131-9.793c-0.757-0.666-1.189-1.623-1.189-2.629c0-1.01,0.432-1.965,1.189-2.631l11.131-9.795l-4.743-14.049
									c-0.323-0.951-0.219-1.998,0.286-2.869c0.502-0.869,1.356-1.486,2.343-1.686l14.537-2.914l2.916-14.537
									c0.199-0.986,0.812-1.842,1.684-2.346c0.538-0.309,1.143-0.471,1.752-0.471c0.376,0,0.755,0.064,1.121,0.186l14.046,4.744
									l9.794-11.131c0.663-0.756,1.622-1.189,2.629-1.189s1.965,0.434,2.63,1.189l9.793,11.131l14.047-4.744
									c0.365-0.121,0.744-0.186,1.121-0.186c0.609,0,1.215,0.162,1.752,0.471c0.872,0.504,1.486,1.359,1.684,2.346l2.915,14.537
									l14.537,2.914c0.987,0.199,1.841,0.816,2.345,1.686c0.502,0.871,0.608,1.918,0.286,2.869l-4.747,14.049l11.134,9.795
									C300.795,294.617,301.228,295.572,301.228,296.582z"/><circle cx="242.541" cy="296.581" r="36.05" fill="#FFBE55"/></g></svg>